<?xml version="1.0" encoding="UTF-8" standalone="no"?>

<!-- Created with Inkscape (http://www.inkscape.org/) -->

<svg id="svg6443" xmlns:rdf="http://www.w3.org/1999/02/22-rdf-syntax-ns#" xmlns="http://www.w3.org/2000/svg" height="90.031" width="90.062" viewBox="0 0 90.062 90.031" version="1.1" xmlns:cc="http://creativecommons.org/ns#" xmlns:dc="http://purl.org/dc/elements/1.1/">

 <metadata id="metadata4">

  <rdf:RDF>

   <cc:Work rdf:about="">

    <dc:format>image/svg+xml</dc:format>

    <dc:type rdf:resource="http://purl.org/dc/dcmitype/StillImage"/>

    <dc:title/>

   </cc:Work>

  </rdf:RDF>

 </metadata>

 <g id="layer1" transform="translate(-177.8125,-424.5)">

  <path id="smallgear" fill="#333" stroke="#FFF" d="m220.89,424.99-3,6.625-0.25,2.375,0.59375,4.0312-7.125,1.9062-1.5-3.7812-1.375-1.9375-5.9062-4.25-3.4375,1.9688,0.71875,7.2812,0.96875,2.1562,2.5312,3.1562-5.2188,5.2188-3.1875-2.5-2.1562-1-7.25-0.71875-1.9688,3.4375,4.25,5.9375,1.9375,1.375,3.75,1.5-1.9062,7.0938-4-0.59375-2.375,0.25-6.6562,3,0,3.9688,6.6562,3,2.375,0.21875,4-0.59375,1.9062,7.125-3.75,1.5-1.9375,1.375-4.25,5.9375,1.9688,3.4062,7.25-0.71875,2.1562-0.96875,3.1875-2.5312,5.2188,5.2188-2.5312,3.1875-0.96875,2.1562-0.71875,7.25,3.4375,2,5.9062-4.25,1.375-1.9375,1.5-3.7812,7.125,1.9062-0.59375,4.0312,0.25,2.3438,3,6.6562,3.9375,0,3.0312-6.6562,0.21875-2.3438-0.59375-4.0312,7.125-1.9062,1.5,3.7812,1.375,1.9375,5.9375,4.25,3.4062-2-0.71875-7.25-0.96875-2.1562-2.5312-3.1875,5.2188-5.2188,3.1875,2.5312,2.1562,0.96875,7.25,0.71875,1.9688-3.4062-4.25-5.9375-1.9062-1.375-3.7812-1.5,1.9062-7.125,4.0312,0.59375,2.3438-0.21875,6.6562-3,0-3.9688-6.6562-3-2.3438-0.25-4.0312,0.59375-1.9062-7.0938,3.7812-1.5,1.9062-1.375,4.25-5.9375-1.9688-3.4375-7.25,0.71875-2.1562,1-3.1875,2.5-5.2188-5.2188,2.5312-3.1562,0.96875-2.1562,0.71875-7.2812-3.4062-1.9688-5.9375,4.25-1.375,1.9375-1.5,3.7812-7.125-1.9062,0.59375-4.0312-0.21875-2.375-3.0312-6.625-3.9375,0zm1.9688,39.406c2.8123,0,5.0938,2.2815,5.0938,5.0938s-2.2815,5.0938-5.0938,5.0938-5.0938-2.2815-5.0938-5.0938,2.2815-5.0938,5.0938-5.0938z" />

 </g>

</svg>

