<?xml version="1.0" encoding="UTF-8" standalone="no"?>

<!-- Created with Inkscape (http://www.inkscape.org/) -->

<svg id="svg2" xmlns:rdf="http://www.w3.org/1999/02/22-rdf-syntax-ns#" xmlns="http://www.w3.org/2000/svg" xmlns:osb="http://www.openswatchbook.org/uri/2009/osb" height="166.44" width="166.47" viewBox="0 0 166.47 166.44" version="1.1" xmlns:cc="http://creativecommons.org/ns#" xmlns:dc="http://purl.org/dc/elements/1.1/">

 <defs id="defs4"></defs>

 <metadata id="metadata7">

  <rdf:RDF>

   <cc:Work rdf:about="">

    <dc:format>image/svg+xml</dc:format>

    <dc:type rdf:resource="http://purl.org/dc/dcmitype/StillImage"/>

    <dc:title/>

   </cc:Work>

  </rdf:RDF>

 </metadata>

 <g id="layer1" transform="translate(-459.08474,-439.56579)">

  <path id="largegear" fill="#555" stroke="#FFF" d="m540.02,440.07-2.7188,6.4688-0.75,4.6875,0.125,1.75-7,0.9375-0.3125-1.75-1.9688-4.3125-4.2812-5.5625-4.4062,1.1875-0.9375,6.9688,0.46875,4.7188,0.5625,1.6562-6.5312,2.6875-0.75-1.5625-3-3.6875-5.5938-4.25-3.9375,2.2812,0.875,6.9688,1.6875,4.4375,1,1.4375-5.625,4.3125-1.125-1.3438-3.875-2.75-6.5-2.6875-3.2188,3.2188,2.6562,6.5312,2.7812,3.8438,1.3438,1.1562-4.3125,5.5938-1.4375-1-4.4375-1.6562-7-0.90625-2.2812,3.9375,4.2812,5.625,3.6562,3,1.5938,0.75-2.7188,6.5312-1.6562-0.59375-4.7188-0.46875-6.9688,0.9375-1.1875,4.4062,5.5938,4.3125,4.3125,1.9375,1.7188,0.3125-0.90625,7.0312-1.75-0.15625-4.6875,0.78125-6.5,2.7188,0,4.5625,6.5,2.7188,4.6875,0.75,1.75-0.125,0.90625,7-1.7188,0.3125-4.3125,1.9688-5.5938,4.3125,1.1875,4.375,6.9688,0.96875,4.7188-0.46875,1.6562-0.59375,2.7188,6.5312-1.5938,0.75-3.6562,3-4.2812,5.5938,2.2812,3.9688,7-0.90625,4.4375-1.6875,1.4375-1,4.3125,5.625-1.3438,1.1562-2.7812,3.8438-2.6562,6.5,3.2188,3.2188,6.5-2.6562,3.875-2.7812,1.125-1.3438,5.625,4.3125-1,1.4688-1.6875,4.4062-0.875,7,3.9375,2.2812,5.5938-4.2812,3-3.6562,0.75-1.5938,6.5312,2.7188-0.5625,1.6562-0.46875,4.7188,0.9375,6.9688,4.4062,1.1875,4.2812-5.5938,1.9688-4.3125,0.3125-1.7188,7,0.9375-0.125,1.75,0.75,4.6562,2.7188,6.5,4.5625,0,2.7188-6.5,0.78125-4.6562-0.15625-1.75,7.0312-0.9375,0.3125,1.7188,1.9375,4.3125,4.3125,5.5938,4.4062-1.1875,0.9375-6.9688-0.46875-4.7188-0.59375-1.6562,6.5312-2.7188,0.78125,1.5938,3,3.6562,5.5938,4.2812,3.9375-2.2812-0.90625-7-1.6562-4.4062-1-1.4688,5.625-4.3125,1.125,1.3438,3.8438,2.7812,6.5312,2.6562,3.2188-3.2188-2.6875-6.5-2.75-3.8438-1.3438-1.1562,4.3125-5.625,1.4375,1,4.4375,1.6875,7,0.90625,2.25-3.9688-4.25-5.5938-3.6562-3-1.5938-0.75,2.6875-6.5312,1.6562,0.59375,4.7188,0.46875,7-0.96875,1.1562-4.375-5.5625-4.3125-4.3125-1.9688-1.75-0.3125,0.9375-7,1.75,0.125,4.6875-0.75,6.5-2.7188,0-4.5625-6.5-2.7188-4.6875-0.78125-1.75,0.15625-0.9375-7.0312,1.75-0.3125,4.3125-1.9375,5.5625-4.3125-1.1562-4.4062-7-0.9375-4.7188,0.46875-1.6562,0.59375-2.6875-6.5312,1.5938-0.75,3.6562-3,4.25-5.625-2.25-3.9375-7,0.90625-4.4375,1.6562-1.4375,1-4.3125-5.5938,1.3438-1.1562,2.75-3.8438,2.6875-6.5312-3.2188-3.2188-6.5312,2.6875-3.8438,2.75-1.125,1.3438-5.625-4.3125,1-1.4375,1.6562-4.4375,0.90625-6.9688-3.9375-2.2812-5.5938,4.25-3,3.6875-0.78125,1.5625-6.5312-2.6875,0.59375-1.6562,0.46875-4.7188-0.9375-6.9688-4.4062-1.1875-4.3125,5.5625-1.9375,4.3125-0.3125,1.75-7.0312-0.9375,0.15625-1.75-0.78125-4.6875-2.7188-6.4688-4.5625,0zm-9.875,26.25,0,34.125c-4.2996,2.3451-7.8424,5.8879-10.188,10.188h-37.312c5.0723-22.29,23.794-39.792,47.5-44.312zm24.344,0c23.683,4.5388,42.395,22.041,47.469,44.312h-37.281c-2.345-4.2996-5.8879-7.8424-10.188-10.188v-34.125zm-12.156,44.875c6.4057,0,11.594,5.188,11.594,11.594,0,6.4057-5.188,11.594-11.594,11.594-6.4057,0-11.625-5.188-11.625-11.594,0-6.4057,5.2193-11.594,11.625-11.594zm-59.688,23.75,37.312,0c2.345,4.2996,5.8879,7.8424,10.188,10.188v34.156c-23.715-4.5223-42.436-22.042-47.5-44.344zm82.031,0,37.281,0c-5.065,22.281-23.78,39.771-47.469,44.312v-34.125c4.2996-2.3451,7.8424-5.8879,10.188-10.188z"/>

 </g>

</svg>

